<svg xmlns="http://www.w3.org/2000/svg" version="1.1" xmlns:xlink="http://www.w3.org/1999/xlink" width="512" height="512" x="0" y="0" viewBox="0 0 512 512" style="enable-background:new 0 0 512 512" xml:space="preserve"><g><path d="M510.905 501.773c-5.38-34.674-22.49-66.935-48.177-90.84-25.687-23.906-59.093-38.656-94.065-41.533L317 365.15v-33.862c16.28-8.36 30.634-19.96 42.211-33.939 25.068-3.739 45.323-23.267 49.827-48.349H415c11.028 0 20-8.972 20-20v-42c0-9.3-6.388-17.113-15-19.342V165C420 74.57 346.43 1 256 1S92 74.57 92 165v2.658c-8.612 2.23-15 10.043-15 19.342v42c0 11.028 8.972 20 20 20h24c2.073 0 4.072-.317 5.953-.905 10.148 36.233 35.173 66.311 68.047 83.193v33.861l-51.664 4.251c-34.97 2.877-68.377 17.627-94.064 41.533-25.687 23.905-42.797 56.166-48.177 90.84A7.997 7.997 0 0 0 9 511h494a7.998 7.998 0 0 0 7.905-9.227zM238.5 422.04a23.759 23.759 0 0 0 2.08 1.956l-26.73 21.135-56.215-60.853 42.174-3.47zM269 453h-26v-10.522l13-10.28 13 10.28zm2.422-29.005a23.747 23.747 0 0 0 2.08-1.956l38.69-41.231 42.178 3.47-56.22 60.852zm102.91-149.179a133.15 133.15 0 0 0 10.715-26.721c1.881.588 3.88.905 5.953.905h1.685c-2.686 10.756-9.38 19.9-18.354 25.816zM419 229c0 2.206-1.794 4-4 4h-24c-2.206 0-4-1.794-4-4v-42c0-2.206 1.794-4 4-4h24c2.206 0 4 1.794 4 4zM256 17c81.607 0 148 66.393 148 148v2h-10.958c-15.473-5.58-30.208-14.015-44-25.21a7.997 7.997 0 0 0-6.846-1.584c-30.54 7.07-58.912 8.696-84.329 4.834-25.05-3.805-48-13.072-68.21-27.544a8.008 8.008 0 0 0-11.806 2.911c-.246.491-19.203 37.48-46.948 49.24A19.855 19.855 0 0 0 121 167h-13v-2c0-81.607 66.393-148 148-148zM125 229c0 2.206-1.794 4-4 4H97c-2.206 0-4-1.794-4-4v-42c0-2.206 1.794-4 4-4h24c2.206 0 4 1.794 4 4zm15.183 5.615c.523-1.784.817-3.665.817-5.615v-42c0-1.432-.158-2.827-.446-4.175 8.972-4.398 17.794-11.042 26.311-19.927 9.487-9.894 16.598-20.439 20.827-27.408 42.367 27.19 94.215 34.301 154.33 21.156 10.203 7.935 20.891 14.496 31.978 19.716v.155A19.85 19.85 0 0 0 371 187v42c0 1.95.294 3.832.817 5.615-3.405 17.466-10.67 33.567-20.875 47.373-.163.002-.324.012-.488.012H315.75c-1.455-9.606-9.744-17-19.75-17h-36c-11.028 0-20 8.972-20 20v8c0 11.028 8.972 20 20 20h36c9.3 0 17.113-6.388 19.342-15h21.363c-21.12 19.832-49.516 32-80.705 32-57.332 0-105.237-41.102-115.817-95.385zM300 293c0 2.206-1.794 4-4 4h-36c-2.206 0-4-1.794-4-4v-8c0-2.206 1.794-4 4-4h36c2.206 0 4 1.794 4 4zm-44 53c15.78 0 30.929-2.748 45-7.78v31.131l-39.166 41.74a7.923 7.923 0 0 1-5.834 2.527 7.92 7.92 0 0 1-5.833-2.527L211 369.35V338.22c14.071 5.032 29.22 7.78 45 7.78zM60.172 422.646c21.331-19.852 48.59-32.666 77.406-36.528.087.103.167.21.26.31l69.286 75a7.987 7.987 0 0 0 5.879 2.572 7.976 7.976 0 0 0 4.959-1.725L227 455.13v5.365L213.534 495H117v-14a8 8 0 0 0-16 0v14H18.658c6.214-27.606 20.74-53.022 41.514-72.354zM230.71 495l9.757-25h31.068l9.756 25zM411 495v-14a8 8 0 0 0-16 0v14h-96.535L285 460.496v-5.367l9.038 7.146a8.002 8.002 0 0 0 10.838-.846l69.573-75.307c28.806 3.867 56.055 16.679 77.38 36.524 20.773 19.332 35.3 44.748 41.513 72.354z" fill="#000000" opacity="1" data-original="#000000"/></g></svg>